<?xml version="1.0" encoding="utf-8"?>
<!-- Generator: Adobe Illustrator 27.6.1, SVG Export Plug-In . SVG Version: 6.00 Build 0)  -->
<svg version="1.1" id="Layer_1" xmlns="http://www.w3.org/2000/svg" xmlns:xlink="http://www.w3.org/1999/xlink" x="0px" y="0px"
	 viewBox="0 0 1000 1000" style="enable-background:new 0 0 1000 1000;" xml:space="preserve">
<style type="text/css">
	.st0{fill:#FC8B8B;}
</style>
<g>
	<g>
		<path class="st0" d="M480.11,999.68c-8.52-25.78-24.96-48.37-39.78-70.81c-15.15-22.95-31.85-47.32-37.41-74.74
			c-6.12-30.14,8.98-59.13,28.18-81.47c18.45-21.47,42.13-39.25,69.22-48c48.21-15.56,99.5-18.99,148.77-29.98
			c24.24-5.4,47.3-15.56,65.47-32.83c17.53-16.65,29.06-39.12,30.07-63.47c1.22-29.46-12.66-56.51-30.82-78.81
			c-10.66-13.09-22.64-22.61-37.37-30.75c-14.86-8.22-30.31-15.38-46.2-21.37c-57.32-21.62-118.72-24.88-177.89-38.95
			c-31.14-7.4-62.84-17.43-90.99-32.87c-22.13-12.13-42.99-26.27-62.3-42.47c-19.33-16.23-44.99-35.93-41.79-64.48
			c2.47-22.08,21.09-39.7,37.41-52.89c20.4-16.49,43.31-29.74,66.17-42.48c19.87-11.07,42.11-20.41,56.13-39.1
			c27.77-37.02,16.35-90.01-2.31-128.36c-4.5-9.25-9.72-18.16-15.72-26.53c-1.12-1.55-3.72-0.06-2.59,1.51
			c13.06,18.21,22.72,39.05,28.57,60.67c6.09,22.5,8.23,47.18,0.73,69.62c-3.73,11.17-9.97,21.37-18.37,29.65
			c-8.6,8.48-19.12,14.04-29.59,19.81c-22.2,12.25-44.54,24.38-65.54,38.65c-18.79,12.77-38.37,27.61-50.14,47.47
			c-4.7,7.92-7.91,16.87-7.99,26.16c-0.1,11.47,4.84,22.71,11.31,31.96c7.92,11.33,18.81,19.85,29.35,28.58
			c9.07,7.52,17.93,14.91,27.69,21.57c22.61,15.44,45.88,28.57,71.41,38.54c30.22,11.8,61.69,19.5,93.57,25.25
			c29.29,5.28,58.84,9.18,87.91,15.67c32.08,7.16,63.22,17.79,92.38,33.06c7.69,4.03,15.6,8.11,22.66,13.19
			c7.02,5.05,13.14,11.26,18.73,17.83c11.17,13.12,20.91,27.74,26.78,44.03c9.17,25.41,7.46,53.19-6.6,76.48
			c-14.03,23.26-37.72,39.49-63.18,47.99c-22.14,7.39-45.96,10.32-68.89,14.23c-26.53,4.52-53.19,8.86-79.32,15.38
			c-10.29,2.57-20.59,5.44-30.37,9.58c-12.52,5.3-24.09,12.88-34.67,21.36c-23.06,18.49-43.92,43.67-51.75,72.67
			c-6.75,25,1.41,49.41,13.11,71.57c13.52,25.63,31.26,48.71,46.11,73.54c6.68,11.17,12.85,22.75,16.95,35.14
			C477.82,1002.3,480.71,1001.52,480.11,999.68z"/>
	</g>
</g>
</svg>
